<?xml version="1.0" encoding="utf-8"?>
<svg width="32" height="32" viewBox="0 0 24 24" xmlns="http://www.w3.org/2000/svg">
  <g fill="none" stroke="#888888" stroke-linecap="round" stroke-linejoin="round" stroke-width="2" transform="matrix(0.166612, 0, 0, 0.166612, 14.40597, 11.442867)" style="visibility: hidden;"/>
  <g>
    <path d="M 12.886 0.233 C 14.248 0.233 15.368 1.262 15.514 2.587 L 17.588 2.587 C 18.98 2.587 20.133 3.663 20.229 5.053 L 20.235 5.234 C 20.234 5.673 19.91 6.047 19.474 6.106 L 19.351 6.116 C 18.911 6.116 18.538 5.791 18.479 5.354 L 18.47 5.234 C 18.47 4.794 18.145 4.42 17.707 4.358 L 17.588 4.35 L 15.08 4.35 C 14.588 5.083 13.765 5.52 12.886 5.519 L 8.761 5.519 C 7.881 5.52 7.058 5.083 6.567 4.351 L 4.059 4.35 C 3.617 4.35 3.245 4.677 3.185 5.114 L 3.176 5.234 L 3.176 21.121 C 3.176 21.569 3.508 21.936 3.939 21.995 L 4.059 22.004 L 7.587 22.004 C 8.027 22.004 8.402 22.329 8.463 22.765 L 8.471 22.885 C 8.471 23.372 8.075 23.767 7.587 23.767 L 4.059 23.767 C 2.666 23.768 1.512 22.691 1.418 21.303 L 1.412 21.121 L 1.412 5.234 C 1.412 3.841 2.488 2.687 3.878 2.592 L 4.059 2.587 L 6.133 2.587 C 6.281 1.247 7.412 0.233 8.761 0.233 Z M 19.94 7.293 C 21.332 7.293 22.487 8.371 22.582 9.758 L 22.588 9.939 L 22.588 21.115 C 22.588 22.507 21.511 23.662 20.121 23.756 L 19.94 23.762 L 12.294 23.762 C 10.902 23.763 9.748 22.685 9.652 21.297 L 9.647 21.115 L 9.647 9.939 C 9.647 8.548 10.723 7.393 12.112 7.299 L 12.294 7.293 Z M 12.886 1.998 L 8.761 1.998 C 8.084 2.023 7.689 2.771 8.048 3.344 C 8.203 3.59 8.47 3.744 8.761 3.754 L 12.886 3.754 C 13.562 3.779 14.011 3.064 13.693 2.465 C 13.535 2.167 13.223 1.986 12.886 1.998 Z M 12.385 12.542 C 12.385 12.542 12.368 12.518 12.398 12.604 C 12.438 12.68 12.515 12.802 12.572 12.859 C 12.623 12.909 12.719 12.967 12.776 12.996 C 12.832 13.015 12.949 13.041 13.021 13.047 L 19.471 13.047 C 19.514 13.046 19.585 13.035 19.629 13.025 C 19.664 13.013 19.736 12.986 19.777 12.966 C 19.817 12.941 19.889 12.89 19.921 12.859 C 19.959 12.821 20.014 12.749 20.041 12.709 C 20.094 12.588 20.158 12.354 20.169 12.227 C 20.152 12.098 20.096 11.898 20.046 11.792 C 19.983 11.705 19.869 11.577 19.786 11.529 C 19.713 11.486 19.567 11.451 19.471 11.443 L 13.021 11.443 C 12.955 11.448 12.849 11.468 12.782 11.491 C 12.719 11.524 12.626 11.585 12.572 11.631 C 12.528 11.678 12.444 11.8 12.397 11.889 C 12.366 11.982 12.332 12.143 12.324 12.244 Z M 12.385 15.923 C 12.385 15.923 12.368 15.899 12.398 15.985 C 12.438 16.061 12.515 16.183 12.572 16.24 C 12.623 16.29 12.719 16.348 12.776 16.377 C 12.832 16.396 12.949 16.422 13.021 16.428 L 19.471 16.428 C 19.514 16.427 19.585 16.416 19.629 16.406 C 19.664 16.394 19.736 16.367 19.777 16.347 C 19.817 16.322 19.889 16.271 19.921 16.24 C 19.959 16.202 20.014 16.13 20.041 16.09 C 20.094 15.969 20.158 15.735 20.169 15.608 C 20.152 15.479 20.096 15.279 20.046 15.173 C 19.983 15.086 19.869 14.958 19.786 14.91 C 19.713 14.867 19.567 14.832 19.471 14.824 L 13.021 14.824 C 12.955 14.829 12.849 14.849 12.782 14.872 C 12.719 14.905 12.626 14.966 12.572 15.012 C 12.528 15.059 12.444 15.181 12.397 15.27 C 12.366 15.363 12.332 15.524 12.324 15.625 Z M 12.385 19.303 C 12.385 19.303 12.368 19.279 12.398 19.365 C 12.438 19.441 12.515 19.563 12.572 19.62 C 12.623 19.67 12.719 19.728 12.776 19.757 C 12.832 19.776 12.949 19.802 13.021 19.808 L 19.471 19.808 C 19.514 19.807 19.585 19.796 19.629 19.786 C 19.664 19.774 19.736 19.747 19.777 19.727 C 19.817 19.702 19.889 19.651 19.921 19.62 C 19.959 19.582 20.014 19.51 20.041 19.47 C 20.094 19.349 20.158 19.115 20.169 18.988 C 20.152 18.859 20.096 18.659 20.046 18.553 C 19.983 18.466 19.869 18.338 19.786 18.29 C 19.713 18.247 19.567 18.212 19.471 18.204 L 13.021 18.204 C 12.955 18.209 12.849 18.229 12.782 18.252 C 12.719 18.285 12.626 18.346 12.572 18.392 C 12.528 18.439 12.444 18.561 12.397 18.65 C 12.366 18.743 12.332 18.904 12.324 19.005 Z" style=""/>
  </g>
  <g transform="matrix(1, 0, 0, 1, -0.094059, 0.453867)"/>
  <ellipse style="fill: rgb(255, 0, 0); stroke: rgb(255, 0, 0); visibility: hidden;" cx="20.396" cy="3.588" rx="2.577" ry="2.577"/>
</svg>