<?xml version="1.0" encoding="utf-8"?>
<svg viewBox="0 0 100 24" xmlns="http://www.w3.org/2000/svg">
  <g style="" transform="matrix(0.9407800436019897, 0, 0, 0.9407800436019897, 0.8417610526084898, 0.7106379270553588)">
    <path d="M 12.886 0.233 C 14.248 0.233 15.368 1.262 15.514 2.587 L 17.588 2.587 C 18.98 2.587 20.133 3.663 20.229 5.053 L 20.235 5.234 C 20.234 5.673 19.91 6.047 19.474 6.106 L 19.351 6.116 C 18.911 6.116 18.538 5.791 18.479 5.354 L 18.47 5.234 C 18.47 4.794 18.145 4.42 17.707 4.358 L 17.588 4.35 L 15.08 4.35 C 14.588 5.083 13.765 5.52 12.886 5.519 L 8.761 5.519 C 7.881 5.52 7.058 5.083 6.567 4.351 L 4.059 4.35 C 3.617 4.35 3.245 4.677 3.185 5.114 L 3.176 5.234 L 3.176 21.121 C 3.176 21.569 3.508 21.936 3.939 21.995 L 4.059 22.004 L 7.587 22.004 C 8.027 22.004 8.402 22.329 8.463 22.765 L 8.471 22.885 C 8.471 23.372 8.075 23.767 7.587 23.767 L 4.059 23.767 C 2.666 23.768 1.512 22.691 1.418 21.303 L 1.412 21.121 L 1.412 5.234 C 1.412 3.841 2.488 2.687 3.878 2.592 L 4.059 2.587 L 6.133 2.587 C 6.281 1.247 7.412 0.233 8.761 0.233 L 12.886 0.233 Z M 12.886 1.998 L 8.761 1.998 C 8.084 2.023 7.689 2.771 8.048 3.344 C 8.203 3.59 8.47 3.744 8.761 3.754 L 12.886 3.754 C 13.562 3.779 14.011 3.064 13.693 2.465 C 13.535 2.167 13.223 1.986 12.886 1.998 Z" style="fill: rgb(255, 193, 49);"/>
  </g>
  <path d="M 19.615 7.577 C 20.925 7.577 22.011 8.59 22.101 9.895 L 22.106 10.066 L 22.106 20.58 C 22.106 21.89 21.094 22.976 19.785 23.064 L 19.615 23.07 L 12.422 23.07 C 11.112 23.07 10.027 22.057 9.936 20.751 L 9.932 20.58 L 9.932 10.066 C 9.932 8.758 10.944 7.67 12.251 7.582 L 12.422 7.577 L 19.615 7.577 Z M 12.508 12.514 C 12.508 12.514 12.492 12.492 12.52 12.573 C 12.557 12.645 12.63 12.759 12.684 12.813 C 12.732 12.86 12.821 12.914 12.876 12.942 C 12.928 12.959 13.038 12.984 13.106 12.99 L 19.173 12.99 C 19.214 12.989 19.28 12.978 19.322 12.969 C 19.356 12.958 19.423 12.932 19.461 12.914 C 19.499 12.891 19.567 12.843 19.597 12.813 C 19.632 12.777 19.685 12.71 19.71 12.672 C 19.76 12.558 19.82 12.338 19.83 12.218 C 19.814 12.097 19.761 11.909 19.715 11.809 C 19.656 11.727 19.549 11.606 19.47 11.562 C 19.401 11.522 19.265 11.488 19.173 11.481 L 13.106 11.481 C 13.044 11.486 12.944 11.504 12.881 11.526 C 12.821 11.557 12.734 11.614 12.684 11.658 C 12.642 11.702 12.563 11.817 12.519 11.9 C 12.489 11.988 12.457 12.139 12.45 12.234 L 12.508 12.514 Z M 12.508 15.695 C 12.508 15.695 12.492 15.673 12.52 15.754 C 12.557 15.825 12.63 15.94 12.684 15.994 C 12.732 16.041 12.821 16.095 12.876 16.122 C 12.928 16.14 13.038 16.165 13.106 16.17 L 19.173 16.17 C 19.214 16.17 19.28 16.159 19.322 16.15 C 19.356 16.138 19.423 16.113 19.461 16.095 C 19.499 16.07 19.567 16.022 19.597 15.994 C 19.632 15.958 19.685 15.891 19.71 15.853 C 19.76 15.738 19.82 15.518 19.83 15.399 C 19.814 15.278 19.761 15.09 19.715 14.99 C 19.656 14.908 19.549 14.787 19.47 14.742 C 19.401 14.702 19.265 14.669 19.173 14.662 L 13.106 14.662 C 13.044 14.667 12.944 14.685 12.881 14.706 C 12.821 14.738 12.734 14.795 12.684 14.838 C 12.642 14.882 12.563 14.998 12.519 15.081 C 12.489 15.169 12.457 15.32 12.45 15.415 L 12.508 15.695 Z M 12.508 18.875 C 12.508 18.875 12.492 18.853 12.52 18.934 C 12.557 19.005 12.63 19.12 12.684 19.174 C 12.732 19.22 12.821 19.275 12.876 19.303 C 12.928 19.32 13.038 19.345 13.106 19.351 L 19.173 19.351 C 19.214 19.35 19.28 19.339 19.322 19.33 C 19.356 19.319 19.423 19.293 19.461 19.275 C 19.499 19.251 19.567 19.203 19.597 19.174 C 19.632 19.138 19.685 19.07 19.71 19.032 C 19.76 18.919 19.82 18.699 19.83 18.578 C 19.814 18.458 19.761 18.27 19.715 18.17 C 19.656 18.088 19.549 17.967 19.47 17.923 C 19.401 17.882 19.265 17.849 19.173 17.842 L 13.106 17.842 C 13.044 17.846 12.944 17.865 12.881 17.887 C 12.821 17.918 12.734 17.974 12.684 18.019 C 12.642 18.063 12.563 18.177 12.519 18.261 C 12.489 18.348 12.457 18.5 12.45 18.594 L 12.508 18.875 Z" style="fill: rgb(33, 199, 218);" transform="matrix(0.9999999999999999, 0, 0, 0.9999999999999999, 0, 0)"/>
  <text style="fill: rgb(33, 199, 218); font-family: 'Baloo Thambi 2'; font-size: 18.7px; font-weight: 500; letter-spacing: -0.5px; white-space: pre;"><tspan x="25.603" y="21.563">Paste</tspan><tspan style="text-transform: capitalize;">Bar</tspan></text>
</svg>