<svg xmlns="http://www.w3.org/2000/svg" viewBox="0 0 100 24">
  <path d="M12.886.233c1.362 0 2.482 1.029 2.628 2.354h2.074c1.392 0 2.545 1.076 2.641 2.466l.006.181c-.001.439-.325.813-.761.872l-.123.01c-.44 0-.813-.325-.872-.762l-.009-.12c0-.44-.325-.814-.763-.876l-.119-.008H15.08a2.6383 2.6383 0 0 1-2.194 1.169H8.761c-.88.001-1.703-.436-2.194-1.168L4.059 4.35c-.442 0-.814.327-.874.764l-.009.12v15.887c0 .448.332.815.763.874l.12.009h3.528c.44 0 .815.325.876.761l.008.12c0 .487-.396.882-.884.882H4.059c-1.393.001-2.547-1.076-2.641-2.464l-.006-.182V5.234c0-1.393 1.076-2.547 2.466-2.642l.181-.005h2.074C6.281 1.247 7.412.233 8.761.233h4.125Zm0 1.765H8.761c-.677.025-1.072.773-.713 1.346.155.246.422.4.713.41h4.125c.676.025 1.125-.69.807-1.289a.8766.8766 0 0 0-.807-.467Z" style="fill:#ffc131" transform="translate(.8418 .7106) scale(.94078)"/>
  <path d="M19.615 7.577c1.31 0 2.396 1.013 2.486 2.318l.005.171V20.58c0 1.31-1.012 2.396-2.321 2.484l-.17.006h-7.193c-1.31 0-2.395-1.013-2.486-2.319l-.004-.171V10.066c0-1.308 1.012-2.396 2.319-2.484l.171-.005h7.193Zm-7.107 4.937s-.016-.022.012.059c.037.072.11.186.164.24.048.047.137.101.192.129.052.017.162.042.23.048h6.067c.041-.001.107-.012.149-.021.034-.011.101-.037.139-.055.038-.023.106-.071.136-.101.035-.036.088-.103.113-.141.05-.114.11-.334.12-.454-.016-.121-.069-.309-.115-.409-.059-.082-.166-.203-.245-.247-.069-.04-.205-.074-.297-.081h-6.067c-.062.005-.162.023-.225.045-.06.031-.147.088-.197.132-.042.044-.121.159-.165.242-.03.088-.062.239-.069.334l.058.28Zm0 3.181s-.016-.022.012.059c.037.071.11.186.164.24.048.047.137.101.192.128.052.018.162.043.23.048h6.067c.041 0 .107-.011.149-.02.034-.012.101-.037.139-.055.038-.025.106-.073.136-.101.035-.036.088-.103.113-.141.05-.115.11-.335.12-.454-.016-.121-.069-.309-.115-.409-.059-.082-.166-.203-.245-.248-.069-.04-.205-.073-.297-.08h-6.067c-.062.005-.162.023-.225.044-.06.032-.147.089-.197.132-.042.044-.121.16-.165.243-.03.088-.062.239-.069.334l.058.28Zm0 3.18s-.016-.022.012.059c.037.071.11.186.164.24.048.046.137.101.192.129.052.017.162.042.23.048h6.067c.041-.001.107-.012.149-.021.034-.011.101-.037.139-.055.038-.024.106-.072.136-.101.035-.036.088-.104.113-.142.05-.113.11-.333.12-.454-.016-.12-.069-.308-.115-.408-.059-.082-.166-.203-.245-.247-.069-.041-.205-.074-.297-.081h-6.067c-.062.004-.162.023-.225.045-.06.031-.147.087-.197.132-.042.044-.121.158-.165.242-.03.087-.062.239-.069.333l.058.281Zm16.648-1.22v3.871q-.15.056-.393.102-.243.047-.542.047-.58 0-.832-.215-.253-.215-.253-.72v-9.649q0-.318.178-.496.178-.177.496-.271.579-.205 1.383-.28.805-.075 1.515-.075 2.431 0 3.6 1.028 1.169 1.029 1.169 2.787t-1.169 2.814q-1.169 1.057-3.488 1.057Zm1.533-1.627q1.291 0 2.029-.561.739-.561.739-1.683 0-1.122-.701-1.646-.701-.523-2.01-.523-.431 0-.851.037-.421.037-.758.093v4.283Zm9.48 4.282q.654 0 1.141-.131.486-.131.691-.28v-2.375l-2.038.205q-.86.094-1.29.384-.43.29-.43.888 0 .617.467.963.468.346 1.459.346Zm-.038-7.76q1.74 0 2.768.757 1.029.757 1.029 2.384v4.357q0 .43-.197.664-.196.234-.533.44-.486.28-1.253.486-.766.205-1.776.205-1.814 0-2.833-.71-1.019-.711-1.019-2.095 0-1.234.794-1.888.795-.655 2.291-.804l2.599-.262v-.412q0-.822-.532-1.196-.533-.374-1.487-.374-.748 0-1.44.205-.692.206-1.234.468-.187-.15-.318-.365t-.131-.477q0-.318.159-.523.159-.206.495-.356.524-.261 1.197-.383.673-.121 1.421-.121Zm12.328 6.601q0 1.253-.935 1.963-.935.711-2.712.711-.729 0-1.346-.112-.617-.113-1.057-.318-.439-.206-.682-.487-.243-.28-.243-.617 0-.28.14-.523t.383-.393q.524.337 1.197.617.673.281 1.571.281.841 0 1.29-.29.449-.29.449-.832 0-.468-.309-.748-.308-.281-.907-.43l-1.271-.337q-1.272-.337-1.87-.916-.599-.58-.599-1.59 0-.542.225-1.019.224-.477.664-.823.439-.346 1.094-.542.654-.196 1.496-.196.673 0 1.224.102.552.103.954.281.402.178.627.439.224.262.224.561 0 .3-.131.515-.131.215-.337.346-.336-.206-1-.449-.664-.243-1.431-.243-.785 0-1.234.271-.449.271-.449.757 0 .374.253.617.252.243.869.393l1.085.28q1.421.374 2.094 1.01.674.636.674 1.721Zm3.523-.15q0 .673.393.954.392.28 1.103.28.318 0 .673-.093.355-.094.617-.225.131.15.234.337.103.187.103.449 0 .486-.496.804-.495.318-1.505.318-1.403 0-2.235-.627-.832-.626-.832-2.066v-8.733q.131-.037.374-.093.243-.057.524-.057.542 0 .794.206.253.206.253.692v1.851h2.898q.075.113.141.318.065.206.065.43 0 .804-.692.804h-2.412v4.451Zm5.918-.823q.262 1.066 1.019 1.58.758.515 1.936.515.785 0 1.44-.243.654-.244 1.047-.524.523.299.523.841 0 .318-.243.59-.243.271-.663.467-.421.196-.992.309-.57.112-1.224.112-1.085 0-1.973-.299-.889-.3-1.524-.898-.636-.598-.982-1.477-.346-.879-.346-2.039 0-1.122.337-1.972.336-.851.916-1.422.58-.57 1.365-.869.785-.299 1.683-.299t1.636.289q.739.29 1.272.805.533.514.823 1.224.289.711.289 1.552 0 .468-.224.683-.224.215-.654.29Zm2.319-4.114q-1.029 0-1.711.692-.683.692-.72 1.982l4.6-.654q-.075-.842-.617-1.431-.542-.589-1.552-.589Z" style="fill:#21c7da"/>
  <path d="M78.347 13.092q0 .823-.412 1.468-.411.645-1.309 1.019 1.085.355 1.618 1.085.533.729.533 1.701 0 1.758-1.262 2.59-1.263.832-3.619.832-.729 0-1.542-.074-.814-.075-1.506-.281-.86-.243-.86-.991v-9.35q0-.318.178-.496.177-.177.495-.271.636-.205 1.412-.28.776-.075 1.674-.075 2.188 0 3.394.767 1.206.766 1.206 2.356Zm-1.608 5.217q0-.86-.636-1.356-.636-.495-1.833-.495h-2.319v3.553q.393.093.935.14.543.047 1.085.047 1.328 0 2.048-.458t.72-1.431Zm-4.788-3.366h2.226q1.066 0 1.608-.467.542-.468.542-1.272 0-1.646-2.58-1.646-.543 0-.991.038-.449.037-.805.093Zm11.874 5.367q.655 0 1.141-.131t.692-.28v-2.375l-2.039.205q-.86.094-1.29.384-.43.29-.43.888 0 .617.468.963.467.346 1.458.346Zm-.037-7.76q1.739 0 2.767.757 1.029.757 1.029 2.384v4.357q0 .43-.197.664-.196.234-.532.44-.487.28-1.253.486-.767.205-1.777.205-1.814 0-2.833-.71-1.019-.711-1.019-2.095 0-1.234.795-1.888.794-.655 2.29-.804l2.6-.262v-.412q0-.822-.533-1.196t-1.487-.374q-.748 0-1.44.205-.692.206-1.234.468-.187-.15-.318-.365t-.131-.477q0-.318.159-.523.159-.206.496-.356.523-.261 1.197-.383.673-.121 1.421-.121Zm7.745 8.976q-.13.056-.364.102-.234.047-.514.047-.543 0-.805-.206-.261-.205-.261-.691v-6.134q0-.468.187-.757.187-.29.598-.552.542-.337 1.384-.561.841-.224 1.851-.224 1.646 0 1.646.935 0 .224-.075.42-.075.197-.168.346-.187-.037-.468-.075-.28-.037-.598-.037-.748 0-1.365.159t-1.048.402Z" style="fill:#21c7da;text-transform:capitalize"/>
</svg>
