<svg xmlns="http://www.w3.org/2000/svg" viewBox="3.1249 4.0034 93.751 91.9929">
  <path d="M92.996 22.832H63.871L54.5038 6.605c-.9531-1.6523-2.5938-2.6016-4.5039-2.6016s-3.5508.9492-4.5039 2.6016l-9.3672 16.227H7.0038c-2.1406 0-3.8789 1.7422-3.8789 3.8789v56.352c0 2.1367 1.7383 3.8789 3.8789 3.8789h32.922v5.5781c-3.5508.3164-7.0117.8008-10.363 1.457-.5508.1094-.914.6445-.8047 1.1953.1094.5508.6445.914 1.1953.8047 6.3242-1.2344 13.07-1.8633 20.047-1.8633s13.723.625 20.047 1.8594a1.141 1.141 0 0 0 .1953.0195c.4766 0 .9024-.336 1-.8242.1094-.5508-.2539-1.0859-.8047-1.1953-3.3477-.6523-6.8125-1.1367-10.363-1.457v-5.5781h32.922c2.1367 0 3.879-1.7383 3.879-3.8789V26.711c0-2.1367-1.7384-3.8789-3.879-3.8789zM47.262 7.625c.5898-1.0195 1.5625-1.582 2.7383-1.582s2.1484.5625 2.7383 1.582l14.133 24.48c.5898 1.0195.5898 2.1445 0 3.1641s-1.5625 1.582-2.7383 1.582h-28.266c-1.1758 0-2.1484-.5625-2.7383-1.582s-.5898-2.1445 0-3.1641zM31.364 36.289c.9531 1.6523 2.5977 2.6016 4.5039 2.6016h28.27c1.9102 0 3.5508-.9492 4.5039-2.6016.9531-1.6523.9531-3.5469 0-5.1992l-1.3398-2.3242h23.445v52.25l-81.488-.004v-52.25h23.445l-1.3398 2.3243c-.9531 1.6523-.9531 3.5469 0 5.203zm26.672 56.066c-2.6367-.1836-5.3203-.2773-8.0352-.2773s-5.3984.0937-8.0352.2773v-5.4141h16.074zm36.801-9.2891c0 1.0156-.8242 1.8398-1.8398 1.8398l-85.992-.004c-1.0156 0-1.8398-.8241-1.8398-1.8397V26.71c0-1.0156.8242-1.8398 1.8398-1.8398h27.949l-1.0703 1.8516H8.2389c-.5625 0-1.0195.457-1.0195 1.0195v54.289c0 .5625.457 1.0195 1.0195 1.0195h83.523c.5625 0 1.0195-.457 1.0195-1.0195v-54.289c0-.5625-.457-1.0195-1.0195-1.0195h-25.645l-1.0703-1.8516h27.949c1.0156 0 1.8398.8242 1.8398 1.8398zm-46.969-56.234h4.2656c.5625 0 1.0195-.457 1.0195-1.0195v-12.562c0-.5625-.457-1.0195-1.0195-1.0195H47.868c-.5625 0-1.0195.457-1.0195 1.0195v12.562c0 .5625.457 1.0195 1.0195 1.0195zm1.0195-12.562h2.2266v10.523h-2.2266zm1.1133 21.203c2.0938 0 3.7969-1.7031 3.7969-3.7969s-1.7031-3.7969-3.7969-3.7969-3.7969 1.7031-3.7969 3.7969 1.7031 3.7969 3.7969 3.7969zm0-5.5586c.9687 0 1.7578.789 1.7578 1.7578s-.789 1.7578-1.7578 1.7578-1.7578-.789-1.7578-1.7578c0-.9648.789-1.7578 1.7578-1.7578zm-17.594 25.562 2.9531-2.9531-2.9531-2.9531a1.0185 1.0185 0 0 1 0-1.4414 1.0185 1.0185 0 0 1 1.4414 0l2.9531 2.9531 2.9531-2.9531a1.0185 1.0185 0 0 1 1.4414 0 1.0185 1.0185 0 0 1 0 1.4414l-2.9531 2.9531 2.9531 2.9531a1.0185 1.0185 0 0 1 0 1.4414 1.0209 1.0209 0 0 1-.7227.3008 1.0209 1.0209 0 0 1-.7226-.3008l-2.9531-2.9531-2.9531 2.9531a1.0209 1.0209 0 0 1-.7227.3008 1.0209 1.0209 0 0 1-.7226-.3008c-.3907-.3984-.3907-1.0469.0078-1.4414zm26.398 0 2.9531-2.9531-2.9531-2.9531a1.0185 1.0185 0 0 1 0-1.4414 1.0185 1.0185 0 0 1 1.4414 0l2.9531 2.9531 2.9531-2.9531a1.0185 1.0185 0 0 1 1.4414 0 1.0185 1.0185 0 0 1 0 1.4414l-2.9531 2.9531 2.9531 2.9531a1.0185 1.0185 0 0 1 0 1.4414 1.0209 1.0209 0 0 1-.7227.3008 1.0209 1.0209 0 0 1-.7226-.3008l-2.9531-2.9531-2.9531 2.9531c-.1992.1992-.461.3008-.7227.3008s-.5234-.1016-.7226-.3008c-.3907-.3984-.3907-1.0469.0078-1.4414zm-17.996 14.957c2.2109-2.8867 5.5586-4.543 9.1914-4.543s6.9805 1.6562 9.1914 4.543c.3398.4453.2578 1.0859-.1914 1.4297-.4453.3398-1.086.2578-1.4297-.1914-1.8164-2.379-4.5781-3.7461-7.5703-3.7461s-5.754 1.3672-7.5703 3.746c-.1992.2618-.504.3985-.8086.3985a1.017 1.017 0 0 1-.6172-.211 1.009 1.009 0 0 1-.1953-1.4257z"/>
</svg>