<?xml version="1.0" encoding="utf-8"?>
<svg viewBox="0.294 3.317 24.273 26.397" xmlns="http://www.w3.org/2000/svg">
  <path d="M 19.464 29.576 L 9.633 29.576 C 7.453 29.576 5.686 27.809 5.686 25.629 L 5.686 15.917 C 2.534 14.564 2.028 10.306 4.776 8.253 C 6.717 6.803 9.461 7.168 10.954 9.077 L 19.463 9.077 C 21.643 9.077 23.41 10.844 23.41 13.024 L 23.41 25.629 C 23.41 27.809 21.644 29.575 19.464 29.576 Z M 7.47 8.496 C 4.903 8.496 3.298 11.275 4.582 13.499 C 5.865 15.722 9.075 15.722 10.359 13.499 C 10.651 12.992 10.806 12.416 10.806 11.831 C 10.804 9.99 9.312 8.498 7.47 8.496 Z M 22.283 13.024 C 22.283 11.467 21.021 10.204 19.464 10.204 L 11.616 10.204 C 12.784 13.13 10.62 16.309 7.47 16.294 C 7.25 16.288 7.03 16.266 6.814 16.229 L 6.814 25.629 C 6.814 27.186 8.076 28.448 9.633 28.448 L 19.464 28.448 C 21.021 28.448 22.283 27.186 22.283 25.629 L 22.283 13.024 Z M 19.139 23.593 C 19.139 23.282 18.886 23.03 18.575 23.03 L 10.523 23.03 C 10.09 23.03 9.818 23.5 10.035 23.875 C 10.136 24.05 10.322 24.157 10.523 24.157 L 18.575 24.157 C 18.886 24.157 19.139 23.904 19.139 23.593 Z M 19.139 19.327 C 19.139 19.016 18.886 18.763 18.575 18.763 L 10.523 18.763 C 10.09 18.763 9.818 19.233 10.035 19.608 C 10.136 19.783 10.322 19.89 10.523 19.89 L 18.575 19.89 C 18.886 19.89 19.139 19.638 19.139 19.327 Z M 19.139 15.061 C 19.139 14.75 18.886 14.498 18.575 14.498 L 13.209 14.498 C 12.775 14.498 12.503 14.968 12.721 15.343 C 12.822 15.518 13.007 15.625 13.209 15.625 L 18.575 15.625 C 18.886 15.625 19.139 15.372 19.139 15.061 Z M 8.033 13.49 L 8.033 11.831 C 8.033 11.52 7.781 11.267 7.47 11.267 L 6.25 11.267 C 5.816 11.267 5.545 11.737 5.761 12.113 C 5.863 12.287 6.049 12.394 6.25 12.394 L 6.906 12.394 L 6.906 13.49 C 6.906 13.923 7.376 14.194 7.751 13.978 C 7.926 13.877 8.033 13.69 8.033 13.49 Z" style="" transform="matrix(-1, 0, 0, -1, 26.39677, 36.942104)"/>
  <path d="M 9.191 6.36 H 14.776 A 0.695 0.695 0 0 1 15.471 7.055 V 8.669 A 0.695 0.695 0 0 1 14.776 9.364 H 9.191 A 0.695 0.695 0 0 1 8.496 8.669 V 7.055 A 0.695 0.695 0 0 1 9.191 6.36 Z" style="stroke: rgb(0, 0, 0); fill: rgb(255, 255, 255);"/>
</svg>