<?xml version="1.0" encoding="utf-8"?>
<svg viewBox="0 0 28 32" width="700px" height="800px" xmlns="http://www.w3.org/2000/svg">
  <g id="Page-1" stroke="none" stroke-width="1" fill="none" fill-rule="evenodd">
    <g id="Icon-Set" transform="translate(-466.000000, -99.000000)" fill="#000000">
      <path d="M 487 113 L 473 113 C 472.447 113 472 113.448 472 114 C 472 114.553 472.447 115 473 115 L 487 115 C 487.553 115 488 114.553 488 114 C 488 113.448 487.553 113 487 113 Z M 492 127 C 492 128.104 491.104 129 490 129 L 470 129 C 468.896 129 468 128.104 468 127 L 468 107 C 468 105.896 468.896 105 470 105 L 473 105 L 473 109 L 487 109 L 487 105 L 490 105 C 491.104 105 492 105.896 492 107 L 492 127 Z M 475 103 L 477.223 103 C 477.223 101.896 478.466 101 480 101 C 481.534 101 482.777 101.896 482.777 103 L 485 103 L 485 107 L 475 107 L 475 103 Z M 490 103 L 487 103 C 487 103 481.846 99 480 99 C 478.154 99 473 103 473 103 L 470 103 C 467.791 103 466 104.791 466 107 L 466 127 C 466 129.209 467.791 131 470 131 L 490 131 C 492.209 131 494 129.209 494 127 L 494 107 C 494 104.791 492.209 103 490 103 Z M 487 123 L 473 123 C 472.447 123 472 123.448 472 124 C 472 124.553 472.447 125 473 125 L 487 125 C 487.553 125 488 124.553 488 124 C 488 123.448 487.553 123 487 123 Z M 487 118 L 473 118 C 472.447 118 472 118.448 472 119 C 472 119.553 472.447 120 473 120 L 487 120 C 487.553 120 488 119.553 488 119 C 488 118.448 487.553 118 487 118 Z" id="clipboard"/>
    </g>
  </g>
</svg>