<?xml version="1.0" encoding="utf-8"?>
<svg viewBox="0.561 2.298 23.05 25.683" width="23.05" height="25.683" xmlns="http://www.w3.org/2000/svg">
  <path d="M 4.512 7.237 C 4.512 6.692 4.955 6.248 5.501 6.248 L 16.038 6.248 C 16.583 6.248 17.026 6.692 17.026 7.237 C 17.026 7.782 16.583 8.224 16.038 8.224 L 5.501 8.224 C 4.955 8.224 4.512 7.782 4.512 7.237 Z M 8.182 14.152 L 5.501 14.152 C 4.955 14.152 4.512 14.595 4.512 15.139 C 4.512 15.684 4.955 16.127 5.501 16.127 L 8.182 16.127 C 8.729 16.127 9.171 15.684 9.171 15.139 C 9.171 14.595 8.729 14.152 8.182 14.152 Z M 5.501 12.176 L 12.767 12.176 C 13.313 12.176 13.756 11.734 13.756 11.188 C 13.756 10.643 13.313 10.2 12.767 10.2 L 5.501 10.2 C 4.955 10.2 4.512 10.643 4.512 11.188 C 4.512 11.734 4.955 12.176 5.501 12.176 Z M 18.612 19.42 L 17.026 19.42 L 17.026 17.728 C 17.026 17.182 16.583 16.739 16.038 16.739 C 15.491 16.739 15.049 17.182 15.049 17.728 L 15.049 20.408 C 15.049 20.953 15.491 21.396 16.038 21.396 L 18.612 21.396 C 19.158 21.396 19.6 20.953 19.6 20.408 C 19.6 19.862 19.158 19.42 18.612 19.42 Z M 23.611 20.408 C 23.611 24.583 20.214 27.981 16.038 27.981 C 14.458 27.981 12.991 27.494 11.776 26.664 L 4.183 26.664 C 2.185 26.664 0.561 25.04 0.561 23.042 L 0.561 5.92 C 0.561 3.921 2.185 2.298 4.183 2.298 L 17.355 2.298 C 19.353 2.298 20.978 3.921 20.978 5.92 L 20.978 14.68 C 22.586 16.069 23.611 18.12 23.611 20.408 Z M 4.183 24.688 L 9.795 24.688 C 8.956 23.47 8.464 21.997 8.464 20.408 C 8.464 16.232 11.86 12.835 16.038 12.835 C 17.089 12.835 18.092 13.05 19.001 13.439 L 19.001 5.92 C 19.001 5.012 18.262 4.273 17.355 4.273 L 4.183 4.273 C 3.276 4.273 2.538 5.012 2.538 5.92 L 2.538 23.042 C 2.538 23.95 3.276 24.688 4.183 24.688 Z M 21.634 20.408 C 21.634 17.322 19.125 14.811 16.038 14.811 C 12.949 14.811 10.439 17.322 10.439 20.408 C 10.439 23.493 12.949 26.005 16.038 26.005 C 19.125 26.005 21.634 23.493 21.634 20.408 Z" style="stroke-opacity: 1; stroke-width: 0px;"/>
</svg>