<?xml version="1.0" encoding="utf-8"?>
<svg viewBox="0.294 3.317 24.273 26.397" xmlns="http://www.w3.org/2000/svg">
  <g transform="matrix(1, 0, 0, 1, 0.006468, -0.486171)">
    <path d="M 19.14 29.714 L 8.502 29.714 C 6.143 29.714 4.231 27.802 4.231 25.443 L 4.231 14.934 C 0.821 13.47 0.273 8.863 3.247 6.641 C 5.347 5.072 8.316 5.467 9.932 7.533 L 19.139 7.533 C 21.498 7.533 23.41 9.445 23.41 11.804 L 23.41 25.443 C 23.41 27.802 21.499 29.713 19.14 29.714 Z M 6.162 6.904 C 3.384 6.904 1.647 9.911 3.037 12.318 C 4.425 14.723 7.899 14.723 9.288 12.318 C 9.604 11.769 9.772 11.146 9.772 10.513 C 9.769 8.521 8.155 6.906 6.162 6.904 Z M 22.191 11.804 C 22.191 10.119 20.825 8.752 19.14 8.752 L 10.648 8.752 C 11.912 11.918 9.57 15.358 6.162 15.342 C 5.924 15.336 5.686 15.312 5.452 15.272 L 5.452 25.443 C 5.452 27.128 6.818 28.493 8.502 28.493 L 19.14 28.493 C 20.825 28.493 22.191 27.128 22.191 25.443 L 22.191 11.804 Z M 18.788 23.24 C 18.788 22.903 18.515 22.631 18.178 22.631 L 9.465 22.631 C 8.997 22.631 8.703 23.139 8.937 23.545 C 9.047 23.735 9.248 23.85 9.465 23.85 L 18.178 23.85 C 18.515 23.85 18.788 23.577 18.788 23.24 Z M 18.788 18.624 C 18.788 18.287 18.515 18.014 18.178 18.014 L 9.465 18.014 C 8.997 18.014 8.703 18.522 8.937 18.928 C 9.047 19.117 9.248 19.233 9.465 19.233 L 18.178 19.233 C 18.515 19.233 18.788 18.96 18.788 18.624 Z M 18.788 14.008 C 18.788 13.671 18.515 13.399 18.178 13.399 L 12.372 13.399 C 11.902 13.399 11.608 13.907 11.844 14.313 C 11.953 14.502 12.153 14.618 12.372 14.618 L 18.178 14.618 C 18.515 14.618 18.788 14.344 18.788 14.008 Z M 6.771 12.308 L 6.771 10.513 C 6.771 10.176 6.498 9.902 6.162 9.902 L 4.842 9.902 C 4.372 9.902 4.079 10.411 4.313 10.818 C 4.423 11.006 4.624 11.122 4.842 11.122 L 5.552 11.122 L 5.552 12.308 C 5.552 12.776 6.06 13.07 6.466 12.836 C 6.655 12.727 6.771 12.524 6.771 12.308 Z" style="" transform="matrix(-1, 0, 0, -1, 24.720675, 35.395358)"/>
    <path d="M 7.992 4.719 L 13.802 4.719 C 14.201 4.719 14.525 5.042 14.525 5.443 L 14.525 7.121 C 14.525 7.52 14.201 7.845 13.802 7.845 L 7.992 7.845 C 7.591 7.845 7.268 7.52 7.268 7.121 L 7.268 5.443 C 7.268 5.042 7.591 4.719 7.992 4.719 Z" style="stroke: rgb(0, 0, 0); fill: rgb(255, 255, 255);"/>
  </g>
</svg>